<svg viewBox="0 0 1305.2109 578.125" xmlns="http://www.w3.org/2000/svg">
<style>
svg { background-color: #FFFFFF; }
</style>
<style>
text { font-family: DejaVu Sans, sans-serif; }
</style>
<defs>
<marker id="arrow_gray" markerHeight="10" markerUnits="strokeWidth" markerWidth="10" orient="auto-start-reverse" refX="5" refY="3">
<path d="M1,1 L6,3 L1,5 z" fill="gray"/>
</marker>
</defs>
<defs>
<marker id="arrow_black" markerHeight="10" markerUnits="strokeWidth" markerWidth="10" orient="auto-start-reverse" refX="5" refY="3">
<path d="M1,1 L6,3 L1,5 z" fill="black"/>
</marker>
</defs>
<defs>
<marker id="arrow_blue" markerHeight="10" markerUnits="strokeWidth" markerWidth="10" orient="auto-start-reverse" refX="5" refY="3">
<path d="M1,1 L6,3 L1,5 z" fill="blue"/>
</marker>
</defs>
<g>
<rect fill="#C8C8C8FF" height="34.625" rx="0" stroke="#BFBFBFFF" stroke-width="0.5" width="123.71094" x="16" y="16"/>
<text dominant-baseline="alhphabetic" font-family="DejaVu Sans, sans-serif" font-size="16" text-anchor="middle" x="77.85547" y="38.851563">
Goal
</text>
</g>
<g>
<rect fill="#00FF00FF" height="71.875" rx="0" stroke="#00F300FF" stroke-width="0.5" width="123.71094" x="16" y="115.9375"/>
<text dominant-baseline="alhphabetic" font-family="DejaVu Sans, sans-serif" font-size="16" text-anchor="middle" x="77.85547" y="138.78906">
Maintain
</text>
<text dominant-baseline="alhphabetic" font-family="DejaVu Sans, sans-serif" font-size="16" text-anchor="middle" x="77.85547" y="157.41406">
network
</text>
<text dominant-baseline="alhphabetic" font-family="DejaVu Sans, sans-serif" font-size="16" text-anchor="middle" x="77.85547" y="176.03906">
balance
</text>
</g>
<g>
<rect fill="#FFFF00FF" height="71.875" rx="0" stroke="#F3F300FF" stroke-width="0.5" width="123.71094" x="16" y="286.4375"/>
<text dominant-baseline="alhphabetic" font-family="DejaVu Sans, sans-serif" font-size="16" text-anchor="middle" x="77.85547" y="309.28906">
Enhance
</text>
<text dominant-baseline="alhphabetic" font-family="DejaVu Sans, sans-serif" font-size="16" text-anchor="middle" x="77.85547" y="327.91406">
incentive
</text>
<text dominant-baseline="alhphabetic" font-family="DejaVu Sans, sans-serif" font-size="16" text-anchor="middle" x="77.85547" y="346.53906">
alignment
</text>
</g>
<g>
<rect fill="#C0C0FFFF" height="71.875" rx="0" stroke="#B7B7F3FF" stroke-width="0.5" width="123.71094" x="16" y="456.9375"/>
<text dominant-baseline="alhphabetic" font-family="DejaVu Sans, sans-serif" font-size="16" text-anchor="middle" x="77.85547" y="479.78906">
Sustain
</text>
<text dominant-baseline="alhphabetic" font-family="DejaVu Sans, sans-serif" font-size="16" text-anchor="middle" x="77.85547" y="498.41406">
continuous
</text>
<text dominant-baseline="alhphabetic" font-family="DejaVu Sans, sans-serif" font-size="16" text-anchor="middle" x="77.85547" y="517.03906">
improvement
</text>
</g>
<g>
<rect fill="#C8C8C8FF" height="34.625" rx="8" stroke="#BFBFBFFF" stroke-width="0.5" width="268.2578" x="171.71094" y="16"/>
<text dominant-baseline="alhphabetic" font-family="DejaVu Sans, sans-serif" font-size="16" text-anchor="middle" x="305.83984" y="38.851563">
Protocol Aspect
</text>
</g>
<g>
<rect fill="#00FF00FF" height="53.25" rx="0" stroke="#00F300FF" stroke-width="0.5" width="268.2578" x="171.71094" y="82.625"/>
<text dominant-baseline="alhphabetic" font-family="DejaVu Sans, sans-serif" font-size="16" text-anchor="middle" x="305.83984" y="105.47656">
Issuance distribution maintains
</text>
<text dominant-baseline="alhphabetic" font-family="DejaVu Sans, sans-serif" font-size="16" text-anchor="middle" x="305.83984" y="124.10156">
indexing and network health
</text>
</g>
<g>
<rect fill="#00FF00FF" height="53.25" rx="0" stroke="#00F300FF" stroke-width="0.5" width="268.2578" x="171.71094" y="167.875"/>
<text dominant-baseline="alhphabetic" font-family="DejaVu Sans, sans-serif" font-size="16" text-anchor="middle" x="305.83984" y="190.72656">
Integrated role incentives to
</text>
<text dominant-baseline="alhphabetic" font-family="DejaVu Sans, sans-serif" font-size="16" text-anchor="middle" x="305.83984" y="209.35156">
holistically balance network
</text>
</g>
<g>
<rect fill="#FFFF00FF" height="53.25" rx="0" stroke="#F3F300FF" stroke-width="0.5" width="268.2578" x="171.71094" y="253.125"/>
<text dominant-baseline="alhphabetic" font-family="DejaVu Sans, sans-serif" font-size="16" text-anchor="middle" x="305.83984" y="275.97656">
Network rewards are not linked
</text>
<text dominant-baseline="alhphabetic" font-family="DejaVu Sans, sans-serif" font-size="16" text-anchor="middle" x="305.83984" y="294.60156">
to consumer value delivered
</text>
</g>
<g>
<rect fill="#FFFF00FF" height="53.25" rx="0" stroke="#F3F300FF" stroke-width="0.5" width="268.2578" x="171.71094" y="338.375"/>
<text dominant-baseline="alhphabetic" font-family="DejaVu Sans, sans-serif" font-size="16" text-anchor="middle" x="305.83984" y="361.22656">
Limited incentives for network
</text>
<text dominant-baseline="alhphabetic" font-family="DejaVu Sans, sans-serif" font-size="16" text-anchor="middle" x="305.83984" y="379.85156">
contribution to consumer value
</text>
</g>
<g>
<rect fill="#C0C0FFFF" height="53.25" rx="0" stroke="#B7B7F3FF" stroke-width="0.5" width="268.2578" x="171.71094" y="423.625"/>
<text dominant-baseline="alhphabetic" font-family="DejaVu Sans, sans-serif" font-size="16" text-anchor="middle" x="305.83984" y="446.47656">
Balance issuance allocation
</text>
<text dominant-baseline="alhphabetic" font-family="DejaVu Sans, sans-serif" font-size="16" text-anchor="middle" x="305.83984" y="465.10156">
for expanded network activity
</text>
</g>
<g>
<rect fill="#C0C0FFFF" height="53.25" rx="0" stroke="#B7B7F3FF" stroke-width="0.5" width="268.2578" x="171.71094" y="508.875"/>
<text dominant-baseline="alhphabetic" font-family="DejaVu Sans, sans-serif" font-size="16" text-anchor="middle" x="305.83984" y="531.72656">
Establish long-term model for
</text>
<text dominant-baseline="alhphabetic" font-family="DejaVu Sans, sans-serif" font-size="16" text-anchor="middle" x="305.83984" y="550.35156">
optimal network improvement
</text>
</g>
<g>
<rect fill="#C8C8C8FF" height="34.625" rx="0" stroke="#BFBFBFFF" stroke-width="0.5" width="104.640625" x="471.96875" y="16"/>
<text dominant-baseline="alhphabetic" font-family="DejaVu Sans, sans-serif" font-size="16" text-anchor="middle" x="524.28906" y="38.851563">
Principle
</text>
</g>
<g>
<rect fill="#00FF00FF" height="71.875" rx="0" stroke="#00F300FF" stroke-width="0.5" width="104.640625" x="471.96875" y="115.9375"/>
<text dominant-baseline="alhphabetic" font-family="DejaVu Sans, sans-serif" font-size="16" text-anchor="middle" x="524.28906" y="138.78906">
Synergistic
</text>
<text dominant-baseline="alhphabetic" font-family="DejaVu Sans, sans-serif" font-size="16" text-anchor="middle" x="524.28906" y="157.41406">
open
</text>
<text dominant-baseline="alhphabetic" font-family="DejaVu Sans, sans-serif" font-size="16" text-anchor="middle" x="524.28906" y="176.03906">
primitives
</text>
</g>
<g>
<rect fill="#FFFF00FF" height="71.875" rx="0" stroke="#F3F300FF" stroke-width="0.5" width="104.640625" x="471.96875" y="286.4375"/>
<text dominant-baseline="alhphabetic" font-family="DejaVu Sans, sans-serif" font-size="16" text-anchor="middle" x="524.28906" y="309.28906">
Consumer
</text>
<text dominant-baseline="alhphabetic" font-family="DejaVu Sans, sans-serif" font-size="16" text-anchor="middle" x="524.28906" y="327.91406">
value
</text>
<text dominant-baseline="alhphabetic" font-family="DejaVu Sans, sans-serif" font-size="16" text-anchor="middle" x="524.28906" y="346.53906">
alignment
</text>
</g>
<g>
<rect fill="#C0C0FFFF" height="71.875" rx="0" stroke="#B7B7F3FF" stroke-width="0.5" width="104.640625" x="471.96875" y="456.9375"/>
<text dominant-baseline="alhphabetic" font-family="DejaVu Sans, sans-serif" font-size="16" text-anchor="middle" x="524.28906" y="479.78906">
Self-
</text>
<text dominant-baseline="alhphabetic" font-family="DejaVu Sans, sans-serif" font-size="16" text-anchor="middle" x="524.28906" y="498.41406">
balancing
</text>
<text dominant-baseline="alhphabetic" font-family="DejaVu Sans, sans-serif" font-size="16" text-anchor="middle" x="524.28906" y="517.03906">
markets
</text>
</g>
<g>
<rect fill="#C8C8C8FF" height="34.625" rx="8" stroke="#BFBFBFFF" stroke-width="0.5" width="291.85156" x="608.6094" y="16"/>
<text dominant-baseline="alhphabetic" font-family="DejaVu Sans, sans-serif" font-size="16" text-anchor="middle" x="754.53516" y="38.851563">
Proposed Mechanism
</text>
</g>
<g>
<rect fill="#C8C8C8FF" height="53.25" rx="8" stroke="#BFBFBFFF" stroke-width="0.5" width="291.85156" x="608.6094" y="82.625"/>
<text dominant-baseline="alhphabetic" font-family="DejaVu Sans, sans-serif" font-size="16" text-anchor="middle" x="754.53516" y="105.47656">
Issuance distributed as Network
</text>
<text dominant-baseline="alhphabetic" font-family="DejaVu Sans, sans-serif" font-size="16" text-anchor="middle" x="754.53516" y="124.10156">
Payments and Network Rewards
</text>
</g>
<g>
<rect fill="#C8C8C8FF" height="53.25" rx="8" stroke="#BFBFBFFF" stroke-width="0.5" width="291.85156" x="608.6094" y="167.875"/>
<text dominant-baseline="alhphabetic" font-family="DejaVu Sans, sans-serif" font-size="16" text-anchor="middle" x="754.53516" y="190.72656">
Efficiently balanced fee cuts that
</text>
<text dominant-baseline="alhphabetic" font-family="DejaVu Sans, sans-serif" font-size="16" text-anchor="middle" x="754.53516" y="209.35156">
incentivize network value creation
</text>
</g>
<g>
<rect fill="#C8C8C8FF" height="53.25" rx="8" stroke="#BFBFBFFF" stroke-width="0.5" width="291.85156" x="608.6094" y="253.125"/>
<text dominant-baseline="alhphabetic" font-family="DejaVu Sans, sans-serif" font-size="16" text-anchor="middle" x="754.53516" y="275.97656">
Sponsor incentive that optimally
</text>
<text dominant-baseline="alhphabetic" font-family="DejaVu Sans, sans-serif" font-size="16" text-anchor="middle" x="754.53516" y="294.60156">
matches indexing with demand
</text>
</g>
<g>
<rect fill="#C8C8C8FF" height="53.25" rx="8" stroke="#BFBFBFFF" stroke-width="0.5" width="291.85156" x="608.6094" y="338.375"/>
<text dominant-baseline="alhphabetic" font-family="DejaVu Sans, sans-serif" font-size="16" text-anchor="middle" x="754.53516" y="361.22656">
Curation as indirect Sponsor using
</text>
<text dominant-baseline="alhphabetic" font-family="DejaVu Sans, sans-serif" font-size="16" text-anchor="middle" x="754.53516" y="379.85156">
issuance (and providing signal)
</text>
</g>
<g>
<rect fill="#C8C8C8FF" height="53.25" rx="8" stroke="#BFBFBFFF" stroke-width="0.5" width="291.85156" x="608.6094" y="423.625"/>
<text dominant-baseline="alhphabetic" font-family="DejaVu Sans, sans-serif" font-size="16" text-anchor="middle" x="754.53516" y="446.47656">
Self-balancing issuance allocation
</text>
<text dominant-baseline="alhphabetic" font-family="DejaVu Sans, sans-serif" font-size="16" text-anchor="middle" x="754.53516" y="465.10156">
based on locked GRT proportions
</text>
</g>
<g>
<rect fill="#C8C8C8FF" height="53.25" rx="8" stroke="#BFBFBFFF" stroke-width="0.5" width="291.85156" x="608.6094" y="508.875"/>
<text dominant-baseline="alhphabetic" font-family="DejaVu Sans, sans-serif" font-size="16" text-anchor="middle" x="754.53516" y="531.72656">
Taper subsidy based on external
</text>
<text dominant-baseline="alhphabetic" font-family="DejaVu Sans, sans-serif" font-size="16" text-anchor="middle" x="754.53516" y="550.35156">
income to match network needs
</text>
</g>
<g>
<rect fill="#E6E6E6FF" height="34.625" rx="4" stroke="#DCDCDCFF" stroke-width="0.5" width="356.75" x="932.46094" y="16"/>
<text dominant-baseline="alhphabetic" font-family="DejaVu Sans, sans-serif" font-size="16" text-anchor="middle" x="1110.8359" y="38.851563">
Proposal (main)
</text>
</g>
<g>
<rect fill="#E6E6E6FF" height="53.25" rx="4" stroke="#DCDCDCFF" stroke-width="0.5" width="356.75" x="932.46094" y="82.625"/>
<text dominant-baseline="alhphabetic" font-family="DejaVu Sans, sans-serif" font-size="16" text-anchor="middle" x="1110.8359" y="105.47656">
GIP-71: Migrate from Indexing Rewards to
</text>
<text dominant-baseline="alhphabetic" font-family="DejaVu Sans, sans-serif" font-size="16" text-anchor="middle" x="1110.8359" y="124.10156">
Network Payments and Network Rewards
</text>
</g>
<g>
<rect fill="#E6E6E6FF" height="53.25" rx="4" stroke="#DCDCDCFF" stroke-width="0.5" width="356.75" x="932.46094" y="167.875"/>
<text dominant-baseline="alhphabetic" font-family="DejaVu Sans, sans-serif" font-size="16" text-anchor="middle" x="1110.8359" y="190.72656">
GIP-72: Network payment cut framework
</text>
<text dominant-baseline="alhphabetic" font-family="DejaVu Sans, sans-serif" font-size="16" text-anchor="middle" x="1110.8359" y="209.35156">
to incentivize decentralized value creation
</text>
</g>
<g>
<rect fill="#E6E6E6FF" height="53.25" rx="4" stroke="#DCDCDCFF" stroke-width="0.5" width="356.75" x="932.46094" y="253.125"/>
<text dominant-baseline="alhphabetic" font-family="DejaVu Sans, sans-serif" font-size="16" text-anchor="middle" x="1110.8359" y="275.97656">
GIP-73: Embed incentives for Sponsors
</text>
<text dominant-baseline="alhphabetic" font-family="DejaVu Sans, sans-serif" font-size="16" text-anchor="middle" x="1110.8359" y="294.60156">
of capability building to balance supply
</text>
</g>
<g>
<rect fill="#E6E6E6FF" height="53.25" rx="4" stroke="#DCDCDCFF" stroke-width="0.5" width="356.75" x="932.46094" y="338.375"/>
<text dominant-baseline="alhphabetic" font-family="DejaVu Sans, sans-serif" font-size="16" text-anchor="middle" x="1110.8359" y="361.22656">
GIP-74: Curation as indirect Sponsor that
</text>
<text dominant-baseline="alhphabetic" font-family="DejaVu Sans, sans-serif" font-size="16" text-anchor="middle" x="1110.8359" y="379.85156">
allocates issuance for capability building
</text>
</g>
<g>
<rect fill="#E6E6E6FF" height="53.25" rx="4" stroke="#DCDCDCFF" stroke-width="0.5" width="356.75" x="932.46094" y="423.625"/>
<text dominant-baseline="alhphabetic" font-family="DejaVu Sans, sans-serif" font-size="16" text-anchor="middle" x="1110.8359" y="446.47656">
GIP-76: Implement upgraded Curation and
</text>
<text dominant-baseline="alhphabetic" font-family="DejaVu Sans, sans-serif" font-size="16" text-anchor="middle" x="1110.8359" y="465.10156">
distribute issuance based on locked GRT
</text>
</g>
<g>
<rect fill="#E6E6E6FF" height="53.25" rx="4" stroke="#DCDCDCFF" stroke-width="0.5" width="356.75" x="932.46094" y="508.875"/>
<text dominant-baseline="alhphabetic" font-family="DejaVu Sans, sans-serif" font-size="16" text-anchor="middle" x="1110.8359" y="531.72656">
GIP-75: Tapered subsidy transition for
</text>
<text dominant-baseline="alhphabetic" font-family="DejaVu Sans, sans-serif" font-size="16" text-anchor="middle" x="1110.8359" y="550.35156">
long-term sustainable network growth
</text>
</g>
<g>
<path d="M139.71094,151.875 L152.39723,151.875 A8,8,0,0,1,158.05408,154.21814 L171.71094,167.875" fill="none" marker-end="url(#arrow_gray)" stroke="gray" stroke-width="1.5"/>
</g>
<g>
<path d="M139.71094,151.875 L152.39723,151.875 A8,8,0,0,0,158.05408,149.53186 L171.71094,135.875" fill="none" marker-end="url(#arrow_gray)" stroke="gray" stroke-width="1.5"/>
</g>
<g>
<path d="M139.71094,151.875 L152.39723,151.875 A8,8,0,0,1,158.05408,154.21814 L171.71094,167.875" fill="none" marker-end="url(#arrow_gray)" stroke="gray" stroke-width="1.5"/>
</g>
<g>
<path d="M139.71094,151.875 L152.39723,151.875 A8,8,0,0,0,158.05408,149.53186 L171.71094,135.875" fill="none" marker-end="url(#arrow_gray)" stroke="gray" stroke-width="1.5"/>
</g>
<g>
<path d="M77.85547,187.8125 L77.85547,286.4375" fill="none" marker-end="url(#arrow_gray)" marker-start="url(#arrow_gray)" stroke="gray" stroke-width="1.5"/>
</g>
<g>
<path d="M139.71094,322.375 L152.39723,322.375 A8,8,0,0,1,158.05408,324.71814 L171.71094,338.375" fill="none" marker-end="url(#arrow_gray)" stroke="gray" stroke-width="1.5"/>
</g>
<g>
<path d="M139.71094,322.375 L152.39723,322.375 A8,8,0,0,0,158.05408,320.03186 L171.71094,306.375" fill="none" marker-end="url(#arrow_gray)" stroke="gray" stroke-width="1.5"/>
</g>
<g>
<path d="M139.71094,322.375 L152.39723,322.375 A8,8,0,0,1,158.05408,324.71814 L171.71094,338.375" fill="none" marker-end="url(#arrow_gray)" stroke="gray" stroke-width="1.5"/>
</g>
<g>
<path d="M139.71094,322.375 L152.39723,322.375 A8,8,0,0,0,158.05408,320.03186 L171.71094,306.375" fill="none" marker-end="url(#arrow_gray)" stroke="gray" stroke-width="1.5"/>
</g>
<g>
<path d="M77.85547,456.9375 L77.85547,358.3125" fill="none" marker-end="url(#arrow_gray)" marker-start="url(#arrow_gray)" stroke="gray" stroke-width="1.5"/>
</g>
<g>
<path d="M139.71094,492.875 L152.39723,492.875 A8,8,0,0,1,158.05408,495.21814 L171.71094,508.875" fill="none" marker-end="url(#arrow_gray)" stroke="gray" stroke-width="1.5"/>
</g>
<g>
<path d="M139.71094,492.875 L152.39723,492.875 A8,8,0,0,0,158.05408,490.53186 L171.71094,476.875" fill="none" marker-end="url(#arrow_gray)" stroke="gray" stroke-width="1.5"/>
</g>
<g>
<path d="M139.71094,492.875 L152.39723,492.875 A8,8,0,0,1,158.05408,495.21814 L171.71094,508.875" fill="none" marker-end="url(#arrow_gray)" stroke="gray" stroke-width="1.5"/>
</g>
<g>
<path d="M139.71094,492.875 L152.39723,492.875 A8,8,0,0,0,158.05408,490.53186 L171.71094,476.875" fill="none" marker-end="url(#arrow_gray)" stroke="gray" stroke-width="1.5"/>
</g>
<g>
<path d="M439.96875,109.25 L608.6094,109.25" fill="none" marker-end="url(#arrow_blue)" stroke="blue" stroke-dasharray="5, 5" stroke-width="1.5"/>
</g>
<g>
<path d="M439.96875,135.875 L453.6256,149.53186 A8,8,0,0,0,459.28247,151.875 L471.96875,151.875" fill="none" marker-end="url(#arrow_blue)" stroke="blue" stroke-dasharray="5, 5" stroke-width="1.5"/>
</g>
<g>
<path d="M439.96875,109.25 L608.6094,109.25" fill="none" marker-end="url(#arrow_blue)" stroke="blue" stroke-dasharray="5, 5" stroke-width="1.5"/>
</g>
<g>
<path d="M439.96875,135.875 L453.6256,149.53186 A8,8,0,0,0,459.28247,151.875 L471.96875,151.875" fill="none" marker-end="url(#arrow_blue)" stroke="blue" stroke-dasharray="5, 5" stroke-width="1.5"/>
</g>
<g>
<path d="M439.96875,221.125 L453.6256,234.78186 A8,8,0,0,1,455.96875,240.4387 L455.96875,267.12378 A8,8,0,0,0,458.3119,272.78064 L471.96875,286.4375" fill="none" marker-end="url(#arrow_blue)" stroke="blue" stroke-dasharray="5, 5" stroke-width="1.5"/>
</g>
<g>
<path d="M439.96875,167.875 L453.6256,154.21814 A8,8,0,0,1,459.28247,151.875 L471.96875,151.875" fill="none" marker-end="url(#arrow_blue)" stroke="blue" stroke-dasharray="5, 5" stroke-width="1.5"/>
</g>
<g>
<path d="M439.96875,221.125 L453.6256,234.78186 A8,8,0,0,1,455.96875,240.4387 L455.96875,267.12378 A8,8,0,0,0,458.3119,272.78064 L471.96875,286.4375" fill="none" marker-end="url(#arrow_blue)" stroke="blue" stroke-dasharray="5, 5" stroke-width="1.5"/>
</g>
<g>
<path d="M439.96875,167.875 L453.6256,154.21814 A8,8,0,0,1,459.28247,151.875 L471.96875,151.875" fill="none" marker-end="url(#arrow_blue)" stroke="blue" stroke-dasharray="5, 5" stroke-width="1.5"/>
</g>
<g>
<path d="M439.96875,306.375 L453.6256,320.03186 A8,8,0,0,0,459.28247,322.375 L471.96875,322.375" fill="none" marker-end="url(#arrow_blue)" stroke="blue" stroke-dasharray="5, 5" stroke-width="1.5"/>
</g>
<g>
<path d="M439.96875,338.375 L453.6256,324.71814 A8,8,0,0,1,459.28247,322.375 L471.96875,322.375" fill="none" marker-end="url(#arrow_blue)" stroke="blue" stroke-dasharray="5, 5" stroke-width="1.5"/>
</g>
<g>
<path d="M439.96875,423.625 L453.6256,409.96814 A8,8,0,0,0,455.96875,404.31128 L455.96875,377.62622 A8,8,0,0,1,458.3119,371.96936 L471.96875,358.3125" fill="none" marker-end="url(#arrow_blue)" stroke="blue" stroke-dasharray="5, 5" stroke-width="1.5"/>
</g>
<g>
<path d="M439.96875,476.875 L453.6256,490.53186 A8,8,0,0,0,459.28247,492.875 L471.96875,492.875" fill="none" marker-end="url(#arrow_blue)" stroke="blue" stroke-dasharray="5, 5" stroke-width="1.5"/>
</g>
<g>
<path d="M439.96875,423.625 L453.6256,409.96814 A8,8,0,0,0,455.96875,404.31128 L455.96875,377.62622 A8,8,0,0,1,458.3119,371.96936 L471.96875,358.3125" fill="none" marker-end="url(#arrow_blue)" stroke="blue" stroke-dasharray="5, 5" stroke-width="1.5"/>
</g>
<g>
<path d="M439.96875,476.875 L453.6256,490.53186 A8,8,0,0,0,459.28247,492.875 L471.96875,492.875" fill="none" marker-end="url(#arrow_blue)" stroke="blue" stroke-dasharray="5, 5" stroke-width="1.5"/>
</g>
<g>
<path d="M439.96875,535.5 L608.6094,535.5" fill="none" marker-end="url(#arrow_blue)" stroke="blue" stroke-dasharray="5, 5" stroke-width="1.5"/>
</g>
<g>
<path d="M439.96875,508.875 L453.6256,495.21814 A8,8,0,0,1,459.28247,492.875 L471.96875,492.875" fill="none" marker-end="url(#arrow_blue)" stroke="blue" stroke-dasharray="5, 5" stroke-width="1.5"/>
</g>
<g>
<path d="M439.96875,535.5 L608.6094,535.5" fill="none" marker-end="url(#arrow_blue)" stroke="blue" stroke-dasharray="5, 5" stroke-width="1.5"/>
</g>
<g>
<path d="M439.96875,508.875 L453.6256,495.21814 A8,8,0,0,1,459.28247,492.875 L471.96875,492.875" fill="none" marker-end="url(#arrow_blue)" stroke="blue" stroke-dasharray="5, 5" stroke-width="1.5"/>
</g>
<g>
<path d="M524.28906,187.8125 L524.28906,286.4375" fill="none" stroke="lightgray" stroke-dasharray="2, 2" stroke-width="1.5"/>
</g>
<g>
<path d="M576.6094,151.875 L590.9525,151.875 A3.9999897,3.9999897,0,0,0,593.78094,150.70343 L594.95154,149.53284 A8,8,0,0,1,594.9535,149.53088 L610.9525,133.53186" fill="none" marker-end="url(#arrow_gray)" stroke="gray" stroke-width="1.5"/>
</g>
<g>
<path d="M576.6094,151.875 L590.9525,151.875 A3.9999897,3.9999897,0,0,1,593.78094,153.04657 L594.95154,154.21716 A8,8,0,0,1,594.9535,154.21912 L610.9525,170.21814" fill="none" marker-end="url(#arrow_gray)" stroke="gray" stroke-width="1.5"/>
</g>
<g>
<path d="M576.6094,187.8125 L590.48083,201.68396 A8,8,0,0,1,592.80676,206.81622 L594.7551,236.46442 A8,8,0,0,0,597.08105,241.59668 L610.9525,255.46814" fill="none" marker-end="url(#arrow_gray)" stroke="gray" stroke-width="1.5"/>
</g>
<g>
<path d="M576.6094,187.8125 L590.3302,201.53331 A8,8,0,0,1,592.6718,207.03516 L594.8901,321.49548 A8,8,0,0,0,597.2317,326.9973 L610.9525,340.71814" fill="none" marker-end="url(#arrow_gray)" stroke="gray" stroke-width="1.5"/>
</g>
<g>
<path d="M576.6094,151.875 L590.9525,151.875 A3.9999897,3.9999897,0,0,0,593.78094,150.70343 L594.95154,149.53284 A8,8,0,0,1,594.9535,149.53088 L610.9525,133.53186" fill="none" marker-end="url(#arrow_gray)" stroke="gray" stroke-width="1.5"/>
</g>
<g>
<path d="M576.6094,151.875 L590.9525,151.875 A3.9999897,3.9999897,0,0,1,593.78094,153.04657 L594.95154,154.21716 A8,8,0,0,1,594.9535,154.21912 L610.9525,170.21814" fill="none" marker-end="url(#arrow_gray)" stroke="gray" stroke-width="1.5"/>
</g>
<g>
<path d="M576.6094,187.8125 L590.48083,201.68396 A8,8,0,0,1,592.80676,206.81622 L594.7551,236.46442 A8,8,0,0,0,597.08105,241.59668 L610.9525,255.46814" fill="none" marker-end="url(#arrow_gray)" stroke="gray" stroke-width="1.5"/>
</g>
<g>
<path d="M576.6094,187.8125 L590.3302,201.53331 A8,8,0,0,1,592.6718,207.03516 L594.8901,321.49548 A8,8,0,0,0,597.2317,326.9973 L610.9525,340.71814" fill="none" marker-end="url(#arrow_gray)" stroke="gray" stroke-width="1.5"/>
</g>
<g>
<path d="M576.6094,151.875 L590.9525,151.875 A3.9999897,3.9999897,0,0,0,593.78094,150.70343 L594.95154,149.53284 A8,8,0,0,1,594.9535,149.53088 L610.9525,133.53186" fill="none" marker-end="url(#arrow_gray)" stroke="gray" stroke-width="1.5"/>
</g>
<g>
<path d="M576.6094,151.875 L590.9525,151.875 A3.9999897,3.9999897,0,0,1,593.78094,153.04657 L594.95154,154.21716 A8,8,0,0,1,594.9535,154.21912 L610.9525,170.21814" fill="none" marker-end="url(#arrow_gray)" stroke="gray" stroke-width="1.5"/>
</g>
<g>
<path d="M576.6094,187.8125 L590.48083,201.68396 A8,8,0,0,1,592.80676,206.81622 L594.7551,236.46442 A8,8,0,0,0,597.08105,241.59668 L610.9525,255.46814" fill="none" marker-end="url(#arrow_gray)" stroke="gray" stroke-width="1.5"/>
</g>
<g>
<path d="M576.6094,187.8125 L590.3302,201.53331 A8,8,0,0,1,592.6718,207.03516 L594.8901,321.49548 A8,8,0,0,0,597.2317,326.9973 L610.9525,340.71814" fill="none" marker-end="url(#arrow_gray)" stroke="gray" stroke-width="1.5"/>
</g>
<g>
<path d="M576.6094,151.875 L590.9525,151.875 A3.9999897,3.9999897,0,0,0,593.78094,150.70343 L594.95154,149.53284 A8,8,0,0,1,594.9535,149.53088 L610.9525,133.53186" fill="none" marker-end="url(#arrow_gray)" stroke="gray" stroke-width="1.5"/>
</g>
<g>
<path d="M576.6094,151.875 L590.9525,151.875 A3.9999897,3.9999897,0,0,1,593.78094,153.04657 L594.95154,154.21716 A8,8,0,0,1,594.9535,154.21912 L610.9525,170.21814" fill="none" marker-end="url(#arrow_gray)" stroke="gray" stroke-width="1.5"/>
</g>
<g>
<path d="M576.6094,187.8125 L590.48083,201.68396 A8,8,0,0,1,592.80676,206.81622 L594.7551,236.46442 A8,8,0,0,0,597.08105,241.59668 L610.9525,255.46814" fill="none" marker-end="url(#arrow_gray)" stroke="gray" stroke-width="1.5"/>
</g>
<g>
<path d="M576.6094,187.8125 L590.3302,201.53331 A8,8,0,0,1,592.6718,207.03516 L594.8901,321.49548 A8,8,0,0,0,597.2317,326.9973 L610.9525,340.71814" fill="none" marker-end="url(#arrow_gray)" stroke="gray" stroke-width="1.5"/>
</g>
<g>
<path d="M576.6094,286.4375 L590.48083,272.56604 A8,8,0,0,0,592.80676,267.43378 L594.7551,237.78558 A8,8,0,0,1,597.08105,232.65332 L610.9525,218.78186" fill="none" marker-end="url(#arrow_gray)" stroke="gray" stroke-width="1.5"/>
</g>
<g>
<path d="M576.6094,322.375 L590.9525,322.375 A3.9999897,3.9999897,0,0,0,593.78094,321.20343 L594.95154,320.03284 A8,8,0,0,1,594.9535,320.03088 L610.9525,304.03186" fill="none" marker-end="url(#arrow_gray)" stroke="gray" stroke-width="1.5"/>
</g>
<g>
<path d="M576.6094,322.375 L590.9525,322.375 A3.9999897,3.9999897,0,0,1,593.78094,323.54657 L594.95154,324.71716 A8,8,0,0,1,594.9535,324.71912 L610.9525,340.71814" fill="none" marker-end="url(#arrow_gray)" stroke="gray" stroke-width="1.5"/>
</g>
<g>
<path d="M576.6094,286.4375 L590.3302,272.71667 A8,8,0,0,0,592.6718,267.21484 L594.8901,152.75452 A8,8,0,0,1,597.2317,147.25267 L610.9525,133.53186" fill="none" marker-end="url(#arrow_gray)" stroke="gray" stroke-width="1.5"/>
</g>
<g>
<path d="M576.6094,358.3125 L590.48083,372.18396 A8,8,0,0,1,592.80676,377.31622 L594.7551,406.96442 A8,8,0,0,0,597.08105,412.09668 L610.9525,425.96814" fill="none" marker-end="url(#arrow_gray)" stroke="gray" stroke-width="1.5"/>
</g>
<g>
<path d="M576.6094,286.4375 L590.48083,272.56604 A8,8,0,0,0,592.80676,267.43378 L594.7551,237.78558 A8,8,0,0,1,597.08105,232.65332 L610.9525,218.78186" fill="none" marker-end="url(#arrow_gray)" stroke="gray" stroke-width="1.5"/>
</g>
<g>
<path d="M576.6094,322.375 L590.9525,322.375 A3.9999897,3.9999897,0,0,0,593.78094,321.20343 L594.95154,320.03284 A8,8,0,0,1,594.9535,320.03088 L610.9525,304.03186" fill="none" marker-end="url(#arrow_gray)" stroke="gray" stroke-width="1.5"/>
</g>
<g>
<path d="M576.6094,322.375 L590.9525,322.375 A3.9999897,3.9999897,0,0,1,593.78094,323.54657 L594.95154,324.71716 A8,8,0,0,1,594.9535,324.71912 L610.9525,340.71814" fill="none" marker-end="url(#arrow_gray)" stroke="gray" stroke-width="1.5"/>
</g>
<g>
<path d="M576.6094,286.4375 L590.3302,272.71667 A8,8,0,0,0,592.6718,267.21484 L594.8901,152.75452 A8,8,0,0,1,597.2317,147.25267 L610.9525,133.53186" fill="none" marker-end="url(#arrow_gray)" stroke="gray" stroke-width="1.5"/>
</g>
<g>
<path d="M576.6094,358.3125 L590.48083,372.18396 A8,8,0,0,1,592.80676,377.31622 L594.7551,406.96442 A8,8,0,0,0,597.08105,412.09668 L610.9525,425.96814" fill="none" marker-end="url(#arrow_gray)" stroke="gray" stroke-width="1.5"/>
</g>
<g>
<path d="M576.6094,286.4375 L590.48083,272.56604 A8,8,0,0,0,592.80676,267.43378 L594.7551,237.78558 A8,8,0,0,1,597.08105,232.65332 L610.9525,218.78186" fill="none" marker-end="url(#arrow_gray)" stroke="gray" stroke-width="1.5"/>
</g>
<g>
<path d="M576.6094,322.375 L590.9525,322.375 A3.9999897,3.9999897,0,0,0,593.78094,321.20343 L594.95154,320.03284 A8,8,0,0,1,594.9535,320.03088 L610.9525,304.03186" fill="none" marker-end="url(#arrow_gray)" stroke="gray" stroke-width="1.5"/>
</g>
<g>
<path d="M576.6094,322.375 L590.9525,322.375 A3.9999897,3.9999897,0,0,1,593.78094,323.54657 L594.95154,324.71716 A8,8,0,0,1,594.9535,324.71912 L610.9525,340.71814" fill="none" marker-end="url(#arrow_gray)" stroke="gray" stroke-width="1.5"/>
</g>
<g>
<path d="M576.6094,286.4375 L590.3302,272.71667 A8,8,0,0,0,592.6718,267.21484 L594.8901,152.75452 A8,8,0,0,1,597.2317,147.25267 L610.9525,133.53186" fill="none" marker-end="url(#arrow_gray)" stroke="gray" stroke-width="1.5"/>
</g>
<g>
<path d="M576.6094,358.3125 L590.48083,372.18396 A8,8,0,0,1,592.80676,377.31622 L594.7551,406.96442 A8,8,0,0,0,597.08105,412.09668 L610.9525,425.96814" fill="none" marker-end="url(#arrow_gray)" stroke="gray" stroke-width="1.5"/>
</g>
<g>
<path d="M576.6094,286.4375 L590.48083,272.56604 A8,8,0,0,0,592.80676,267.43378 L594.7551,237.78558 A8,8,0,0,1,597.08105,232.65332 L610.9525,218.78186" fill="none" marker-end="url(#arrow_gray)" stroke="gray" stroke-width="1.5"/>
</g>
<g>
<path d="M576.6094,322.375 L590.9525,322.375 A3.9999897,3.9999897,0,0,0,593.78094,321.20343 L594.95154,320.03284 A8,8,0,0,1,594.9535,320.03088 L610.9525,304.03186" fill="none" marker-end="url(#arrow_gray)" stroke="gray" stroke-width="1.5"/>
</g>
<g>
<path d="M576.6094,322.375 L590.9525,322.375 A3.9999897,3.9999897,0,0,1,593.78094,323.54657 L594.95154,324.71716 A8,8,0,0,1,594.9535,324.71912 L610.9525,340.71814" fill="none" marker-end="url(#arrow_gray)" stroke="gray" stroke-width="1.5"/>
</g>
<g>
<path d="M576.6094,286.4375 L590.3302,272.71667 A8,8,0,0,0,592.6718,267.21484 L594.8901,152.75452 A8,8,0,0,1,597.2317,147.25267 L610.9525,133.53186" fill="none" marker-end="url(#arrow_gray)" stroke="gray" stroke-width="1.5"/>
</g>
<g>
<path d="M576.6094,358.3125 L590.48083,372.18396 A8,8,0,0,1,592.80676,377.31622 L594.7551,406.96442 A8,8,0,0,0,597.08105,412.09668 L610.9525,425.96814" fill="none" marker-end="url(#arrow_gray)" stroke="gray" stroke-width="1.5"/>
</g>
<g>
<path d="M576.6094,286.4375 L590.48083,272.56604 A8,8,0,0,0,592.80676,267.43378 L594.7551,237.78558 A8,8,0,0,1,597.08105,232.65332 L610.9525,218.78186" fill="none" marker-end="url(#arrow_gray)" stroke="gray" stroke-width="1.5"/>
</g>
<g>
<path d="M576.6094,322.375 L590.9525,322.375 A3.9999897,3.9999897,0,0,0,593.78094,321.20343 L594.95154,320.03284 A8,8,0,0,1,594.9535,320.03088 L610.9525,304.03186" fill="none" marker-end="url(#arrow_gray)" stroke="gray" stroke-width="1.5"/>
</g>
<g>
<path d="M576.6094,322.375 L590.9525,322.375 A3.9999897,3.9999897,0,0,1,593.78094,323.54657 L594.95154,324.71716 A8,8,0,0,1,594.9535,324.71912 L610.9525,340.71814" fill="none" marker-end="url(#arrow_gray)" stroke="gray" stroke-width="1.5"/>
</g>
<g>
<path d="M576.6094,286.4375 L590.3302,272.71667 A8,8,0,0,0,592.6718,267.21484 L594.8901,152.75452 A8,8,0,0,1,597.2317,147.25267 L610.9525,133.53186" fill="none" marker-end="url(#arrow_gray)" stroke="gray" stroke-width="1.5"/>
</g>
<g>
<path d="M576.6094,358.3125 L590.48083,372.18396 A8,8,0,0,1,592.80676,377.31622 L594.7551,406.96442 A8,8,0,0,0,597.08105,412.09668 L610.9525,425.96814" fill="none" marker-end="url(#arrow_gray)" stroke="gray" stroke-width="1.5"/>
</g>
<g>
<path d="M524.28906,456.9375 L524.28906,358.3125" fill="none" stroke="lightgray" stroke-dasharray="2, 2" stroke-width="1.5"/>
</g>
<g>
<path d="M576.6094,456.9375 L590.3302,443.21667 A8,8,0,0,0,592.6718,437.71484 L594.8901,323.25452 A8,8,0,0,1,597.2317,317.7527 L610.9525,304.03186" fill="none" marker-end="url(#arrow_gray)" stroke="gray" stroke-width="1.5"/>
</g>
<g>
<path d="M576.6094,456.9375 L590.48083,443.06604 A8,8,0,0,0,592.80676,437.93378 L594.7551,408.28558 A8,8,0,0,1,597.08105,403.15332 L610.9525,389.28186" fill="none" marker-end="url(#arrow_gray)" stroke="gray" stroke-width="1.5"/>
</g>
<g>
<path d="M576.6094,492.875 L590.9525,492.875 A3.9999897,3.9999897,0,0,1,593.78094,494.04657 L594.95154,495.21716 A8,8,0,0,1,594.9535,495.21912 L610.9525,511.21814" fill="none" marker-end="url(#arrow_gray)" stroke="gray" stroke-width="1.5"/>
</g>
<g>
<path d="M576.6094,492.875 L590.9525,492.875 A3.9999897,3.9999897,0,0,0,593.78094,491.70343 L594.95154,490.53284 A8,8,0,0,1,594.9535,490.53088 L610.9525,474.53186" fill="none" marker-end="url(#arrow_gray)" stroke="gray" stroke-width="1.5"/>
</g>
<g>
<path d="M576.6094,456.9375 L590.30383,443.24307 A8,8,0,0,0,592.6464,437.67712 L594.91547,238.04222 A8,8,0,0,1,597.25806,232.47629 L610.9525,218.78186" fill="none" marker-end="url(#arrow_gray)" stroke="gray" stroke-width="1.5"/>
</g>
<g>
<path d="M576.6094,456.9375 L590.3302,443.21667 A8,8,0,0,0,592.6718,437.71484 L594.8901,323.25452 A8,8,0,0,1,597.2317,317.7527 L610.9525,304.03186" fill="none" marker-end="url(#arrow_gray)" stroke="gray" stroke-width="1.5"/>
</g>
<g>
<path d="M576.6094,456.9375 L590.48083,443.06604 A8,8,0,0,0,592.80676,437.93378 L594.7551,408.28558 A8,8,0,0,1,597.08105,403.15332 L610.9525,389.28186" fill="none" marker-end="url(#arrow_gray)" stroke="gray" stroke-width="1.5"/>
</g>
<g>
<path d="M576.6094,492.875 L590.9525,492.875 A3.9999897,3.9999897,0,0,1,593.78094,494.04657 L594.95154,495.21716 A8,8,0,0,1,594.9535,495.21912 L610.9525,511.21814" fill="none" marker-end="url(#arrow_gray)" stroke="gray" stroke-width="1.5"/>
</g>
<g>
<path d="M576.6094,492.875 L590.9525,492.875 A3.9999897,3.9999897,0,0,0,593.78094,491.70343 L594.95154,490.53284 A8,8,0,0,1,594.9535,490.53088 L610.9525,474.53186" fill="none" marker-end="url(#arrow_gray)" stroke="gray" stroke-width="1.5"/>
</g>
<g>
<path d="M576.6094,456.9375 L590.30383,443.24307 A8,8,0,0,0,592.6464,437.67712 L594.91547,238.04222 A8,8,0,0,1,597.25806,232.47629 L610.9525,218.78186" fill="none" marker-end="url(#arrow_gray)" stroke="gray" stroke-width="1.5"/>
</g>
<g>
<path d="M576.6094,456.9375 L590.3302,443.21667 A8,8,0,0,0,592.6718,437.71484 L594.8901,323.25452 A8,8,0,0,1,597.2317,317.7527 L610.9525,304.03186" fill="none" marker-end="url(#arrow_gray)" stroke="gray" stroke-width="1.5"/>
</g>
<g>
<path d="M576.6094,456.9375 L590.48083,443.06604 A8,8,0,0,0,592.80676,437.93378 L594.7551,408.28558 A8,8,0,0,1,597.08105,403.15332 L610.9525,389.28186" fill="none" marker-end="url(#arrow_gray)" stroke="gray" stroke-width="1.5"/>
</g>
<g>
<path d="M576.6094,492.875 L590.9525,492.875 A3.9999897,3.9999897,0,0,1,593.78094,494.04657 L594.95154,495.21716 A8,8,0,0,1,594.9535,495.21912 L610.9525,511.21814" fill="none" marker-end="url(#arrow_gray)" stroke="gray" stroke-width="1.5"/>
</g>
<g>
<path d="M576.6094,492.875 L590.9525,492.875 A3.9999897,3.9999897,0,0,0,593.78094,491.70343 L594.95154,490.53284 A8,8,0,0,1,594.9535,490.53088 L610.9525,474.53186" fill="none" marker-end="url(#arrow_gray)" stroke="gray" stroke-width="1.5"/>
</g>
<g>
<path d="M576.6094,456.9375 L590.30383,443.24307 A8,8,0,0,0,592.6464,437.67712 L594.91547,238.04222 A8,8,0,0,1,597.25806,232.47629 L610.9525,218.78186" fill="none" marker-end="url(#arrow_gray)" stroke="gray" stroke-width="1.5"/>
</g>
<g>
<path d="M576.6094,456.9375 L590.3302,443.21667 A8,8,0,0,0,592.6718,437.71484 L594.8901,323.25452 A8,8,0,0,1,597.2317,317.7527 L610.9525,304.03186" fill="none" marker-end="url(#arrow_gray)" stroke="gray" stroke-width="1.5"/>
</g>
<g>
<path d="M576.6094,456.9375 L590.48083,443.06604 A8,8,0,0,0,592.80676,437.93378 L594.7551,408.28558 A8,8,0,0,1,597.08105,403.15332 L610.9525,389.28186" fill="none" marker-end="url(#arrow_gray)" stroke="gray" stroke-width="1.5"/>
</g>
<g>
<path d="M576.6094,492.875 L590.9525,492.875 A3.9999897,3.9999897,0,0,1,593.78094,494.04657 L594.95154,495.21716 A8,8,0,0,1,594.9535,495.21912 L610.9525,511.21814" fill="none" marker-end="url(#arrow_gray)" stroke="gray" stroke-width="1.5"/>
</g>
<g>
<path d="M576.6094,492.875 L590.9525,492.875 A3.9999897,3.9999897,0,0,0,593.78094,491.70343 L594.95154,490.53284 A8,8,0,0,1,594.9535,490.53088 L610.9525,474.53186" fill="none" marker-end="url(#arrow_gray)" stroke="gray" stroke-width="1.5"/>
</g>
<g>
<path d="M576.6094,456.9375 L590.30383,443.24307 A8,8,0,0,0,592.6464,437.67712 L594.91547,238.04222 A8,8,0,0,1,597.25806,232.47629 L610.9525,218.78186" fill="none" marker-end="url(#arrow_gray)" stroke="gray" stroke-width="1.5"/>
</g>
<g>
<path d="M576.6094,456.9375 L590.3302,443.21667 A8,8,0,0,0,592.6718,437.71484 L594.8901,323.25452 A8,8,0,0,1,597.2317,317.7527 L610.9525,304.03186" fill="none" marker-end="url(#arrow_gray)" stroke="gray" stroke-width="1.5"/>
</g>
<g>
<path d="M576.6094,456.9375 L590.48083,443.06604 A8,8,0,0,0,592.80676,437.93378 L594.7551,408.28558 A8,8,0,0,1,597.08105,403.15332 L610.9525,389.28186" fill="none" marker-end="url(#arrow_gray)" stroke="gray" stroke-width="1.5"/>
</g>
<g>
<path d="M576.6094,492.875 L590.9525,492.875 A3.9999897,3.9999897,0,0,1,593.78094,494.04657 L594.95154,495.21716 A8,8,0,0,1,594.9535,495.21912 L610.9525,511.21814" fill="none" marker-end="url(#arrow_gray)" stroke="gray" stroke-width="1.5"/>
</g>
<g>
<path d="M576.6094,492.875 L590.9525,492.875 A3.9999897,3.9999897,0,0,0,593.78094,491.70343 L594.95154,490.53284 A8,8,0,0,1,594.9535,490.53088 L610.9525,474.53186" fill="none" marker-end="url(#arrow_gray)" stroke="gray" stroke-width="1.5"/>
</g>
<g>
<path d="M576.6094,456.9375 L590.30383,443.24307 A8,8,0,0,0,592.6464,437.67712 L594.91547,238.04222 A8,8,0,0,1,597.25806,232.47629 L610.9525,218.78186" fill="none" marker-end="url(#arrow_gray)" stroke="gray" stroke-width="1.5"/>
</g>
<g>
<path d="M932.46094,109.25 L900.46094,109.25" fill="none" stroke="lightgray" stroke-dasharray="2, 2" stroke-width="1.5"/>
</g>
<g>
<path d="M932.46094,194.5 L900.46094,194.5" fill="none" stroke="lightgray" stroke-dasharray="2, 2" stroke-width="1.5"/>
</g>
<g>
<path d="M932.46094,279.75 L900.46094,279.75" fill="none" stroke="lightgray" stroke-dasharray="2, 2" stroke-width="1.5"/>
</g>
<g>
<path d="M932.46094,365 L900.46094,365" fill="none" stroke="lightgray" stroke-dasharray="2, 2" stroke-width="1.5"/>
</g>
<g>
<path d="M932.46094,450.25 L900.46094,450.25" fill="none" stroke="lightgray" stroke-dasharray="2, 2" stroke-width="1.5"/>
</g>
<g>
<path d="M932.46094,535.5 L900.46094,535.5" fill="none" stroke="lightgray" stroke-dasharray="2, 2" stroke-width="1.5"/>
</g>
</svg>